HIERARCHY
ROOT hip 
{
	OFFSET 0.000000 0.000000 0.000000
	CHANNELS 6 Xposition Yposition Zposition Xrotation Zrotation Yrotation 
	JOINT abdomen
	{
		OFFSET 0.000000 3.422050 0.000000
		CHANNELS 3 Xrotation Zrotation Yrotation 
		JOINT chest
		{
			OFFSET 0.000000 8.486693 -0.684411
			CHANNELS 3 Xrotation Zrotation Yrotation 
			JOINT neck
			{
				OFFSET 0.000000 10.266162 -0.273764
				CHANNELS 3 Xrotation Zrotation Yrotation 
				JOINT head
				{
					OFFSET 0.000000 3.148285 0.000000
					CHANNELS 3 Xrotation Zrotation Yrotation 
					End Site
					{
						OFFSET 0.000000 3.148289 0.000000
					}
				}
			}
			JOINT lCollar
			{
				OFFSET 3.422053 6.707223 -0.821293
				CHANNELS 3 Yrotation Zrotation Xrotation 
				JOINT lShldr
				{
					OFFSET 3.285171 0.000000 0.000000
					CHANNELS 3 Zrotation Yrotation Xrotation 
					JOINT lForeArm
					{
						OFFSET 10.129278 0.000000 0.000000
						CHANNELS 3 Yrotation Zrotation Xrotation 
						JOINT lHand
						{
							OFFSET 8.486692 0.000000 0.000000
							CHANNELS 3 Zrotation Yrotation Xrotation 
							End Site
							{
								OFFSET 4.106464 0.000000 0.000000
							}
						}
					}
				}
			}
			JOINT rCollar
			{
				OFFSET -3.558935 6.707223 -0.821293
				CHANNELS 3 Yrotation Zrotation Xrotation 
				JOINT rShldr
				{
					OFFSET -3.148289 0.000000 0.000000
					CHANNELS 3 Zrotation Yrotation Xrotation 
					JOINT rForeArm
					{
						OFFSET -10.266159 0.000000 0.000000
						CHANNELS 3 Yrotation Zrotation Xrotation 
						JOINT rHand
						{
							OFFSET -8.349810 0.000000 0.000000
							CHANNELS 3 Zrotation Yrotation Xrotation 
							End Site
							{
								OFFSET -4.106464 0.000000 0.000000
							}
						}
					}
				}
			}
		}
	}
	JOINT lThigh
	{
		OFFSET 5.338403 -1.642589 1.368821
		CHANNELS 3 Xrotation Zrotation Yrotation 
		JOINT lShin
		{
			OFFSET -2.053232 -20.121670 0.000000
			CHANNELS 3 Xrotation Zrotation Yrotation 
			JOINT lFoot
			{
				OFFSET 0.000000 -19.300380 -1.231939
				CHANNELS 3 Xrotation Yrotation Zrotation 
				End Site
				{
					OFFSET 0.000000 -2.463878 4.653993
				}
			}
		}
	}
	JOINT rThigh
	{
		OFFSET -5.338403 -1.642589 1.368821
		CHANNELS 3 Xrotation Zrotation Yrotation 
		JOINT rShin
		{
			OFFSET 2.053232 -20.121670 0.000000
			CHANNELS 3 Xrotation Zrotation Yrotation 
			JOINT rFoot
			{
				OFFSET 0.000000 -19.300380 -1.231939
				CHANNELS 3 Xrotation Yrotation Zrotation 
				End Site
				{
					OFFSET 0.000000 -2.463878 4.653993
				}
			}
		}
	}
}
MOTION
Frames: 15
Frame Time: 0.049999
0.000000 43.528500 0.000000 0.000000 0.000000 0.000000 0.000000 0.000000 0.000000 0.000000 0.000000 0.000000 0.000000 0.000000 0.000000 0.000000 0.000000 0.000000 0.000000 0.000000 0.000000 0.000000 0.000000 0.000000 0.000000 0.000000 0.000000 0.000000 0.000000 0.000000 0.000000 0.000000 0.000000 0.000000 0.000000 0.000000 0.000000 0.000000 0.000000 0.000000 0.000000 0.000000 0.000000 0.000000 0.000000 0.000000 0.000000 0.000000 0.000000 0.000000 0.000000 0.000000 0.000000 0.000000 0.000000 0.000000 0.000000 0.000000 0.000000 0.000000 
-1.054315 42.474186 0.994241 27.295286 0.000000 0.000000 11.378684 9.114511 -0.149475 1.489718 9.423338 -6.589004 -0.000486 0.005223 -10.641254 -7.965911 -1.008757 -6.438101 9.602066 -0.001569 0.043999 -90.536285 24.927876 -6.232460 -48.056499 0.000000 0.000000 -14.317149 -16.355228 -10.702218 0.007340 5.028712 -0.047578 55.429321 41.709408 24.393995 13.141209 0.000000 0.000000 -27.147936 5.980874 39.312210 -64.153687 30.333008 9.762975 64.956619 0.000000 0.000000 -17.088982 13.318070 -17.750692 -61.654488 -34.168823 -8.862826 57.231724 0.000000 0.000000 -9.817295 -11.776870 22.275906 
-1.054315 42.456165 0.778572 29.471771 0.000000 0.000000 11.306091 9.107706 -0.214017 -1.129744 9.266656 -6.630510 -0.000486 0.005223 -10.641254 -8.917836 -0.571196 -6.394654 9.602066 -0.001569 0.043999 -90.269379 26.821922 -5.900445 -48.492035 0.000000 0.000000 -13.812435 -17.288538 -11.383091 0.007340 5.028712 -0.047578 55.122322 39.485241 25.012844 17.250443 0.000000 0.000000 -27.154812 4.220608 39.574017 -66.843246 29.913456 8.755853 64.951851 0.000000 0.000000 -16.738474 14.024529 -17.864382 -64.350128 -33.730804 -7.634555 57.226543 0.000000 0.000000 -9.450289 -12.628254 22.492222 
-1.054315 42.438141 0.562903 31.651411 0.000000 0.000000 11.233503 9.100816 -0.278549 -3.753418 9.107931 -6.664766 -0.000486 0.005223 -10.641254 -9.869543 -0.132899 -6.358476 9.602066 -0.001569 0.043999 -89.984962 28.716650 -5.552146 -48.927593 0.000000 0.000000 -13.293173 -18.216482 -12.076515 0.007340 5.028712 -0.047578 54.794136 37.261780 25.628450 21.359678 0.000000 0.000000 -27.169724 2.460392 39.835567 -69.516815 29.452806 7.775157 64.947083 0.000000 0.000000 -16.385237 14.730621 -17.982950 -67.023911 -33.244770 -6.436894 57.221359 0.000000 0.000000 -9.078493 -13.478769 22.715025 
-1.054315 42.420120 0.347234 33.832626 0.000000 0.000000 11.160926 9.093847 -0.343072 -6.378589 8.947658 -6.691640 -0.000486 0.005223 -10.641254 -10.820988 0.305938 -6.329586 9.602066 -0.001569 0.043999 -89.681587 30.610836 -5.186096 -49.363171 0.000000 0.000000 -12.759051 -19.138607 -12.782830 0.007340 5.028712 -0.047578 54.445988 35.041222 26.242403 24.110966 0.000000 0.000000 -27.556044 1.612625 39.714066 -72.170799 28.952621 6.823835 64.942322 0.000000 0.000000 -16.029175 15.436256 -18.106474 -69.671791 -32.712456 -5.273431 57.216187 0.000000 0.000000 -8.701740 -14.328243 22.944447 
-1.054315 42.402096 0.131565 36.013844 0.000000 0.000000 11.088357 9.086799 -0.407585 -9.002534 8.786338 -6.711048 -0.000486 0.005223 -10.641254 -11.772115 0.745120 -6.307986 9.602066 -0.001569 0.043999 -89.357658 32.503254 -4.800654 -49.798744 0.000000 0.000000 -12.209751 -20.054464 -13.502386 0.007340 5.028712 -0.047578 54.078831 32.825714 26.856075 26.863842 0.000000 0.000000 -27.940470 0.764004 39.598305 -74.801880 28.414686 5.904566 64.937553 0.000000 0.000000 -15.670187 16.141335 -18.235031 -72.290131 -32.135864 -4.147363 57.211006 0.000000 0.000000 -8.319867 -15.176510 23.180628 
-1.054315 42.384075 -0.084103 38.193474 0.000000 0.000000 11.015799 9.079669 -0.472088 -11.622541 8.624479 -6.722948 -0.000486 0.005223 -10.641254 -13.868644 1.467508 -6.331061 9.602066 -0.001569 0.043999 -89.011360 34.392651 -4.393996 -50.234306 0.000000 0.000000 -11.644957 -20.963591 -14.235532 0.007340 5.028712 -0.047578 54.157951 31.452738 27.466396 29.615124 0.000000 0.000000 -28.323120 -0.085314 39.488266 -77.406952 27.840973 5.019693 64.932777 0.000000 0.000000 -15.308173 16.845751 -18.368694 -74.875694 -31.517204 -3.061484 57.205826 0.000000 0.000000 -7.932701 -16.023390 23.423710 
-1.054315 42.366055 -0.299772 40.369968 0.000000 0.000000 10.943246 9.072455 -0.536582 -14.235916 8.462591 -6.727347 -0.000486 0.005223 -10.641254 -15.967879 2.189109 -6.380623 9.602066 -0.001569 0.043999 -88.640678 36.277767 -3.964058 -50.669830 0.000000 0.000000 -11.064352 -21.865524 -14.982617 0.007340 5.028712 -0.047578 54.219055 30.078899 28.065975 30.837009 0.000000 0.000000 -28.846874 -0.076059 39.172428 -79.983330 27.233633 4.171252 64.928009 0.000000 0.000000 -14.943023 17.549408 -18.507545 -77.425697 -30.858908 -2.018160 57.200649 0.000000 0.000000 -7.540065 -16.868715 23.673847 
-1.054315 42.348030 -0.515441 41.515671 0.000000 0.000000 10.870705 9.065165 -0.601065 -15.418182 8.447572 -6.565803 -0.000486 0.005223 -10.641254 -18.068914 2.908409 -6.456645 9.602066 -0.001569 0.043999 -88.464485 36.952217 -3.621949 -49.934299 0.000000 0.000000 -10.467616 -22.759787 -15.743991 0.007340 5.028712 -0.047578 54.262936 28.704821 28.655739 32.059448 0.000000 0.000000 -29.370764 -0.069691 38.856457 -81.493805 26.911634 3.555021 64.923241 0.000000 0.000000 -14.574627 18.252203 -18.651669 -78.929497 -30.530050 -1.289198 57.195469 0.000000 0.000000 -7.141780 -17.712309 23.931194 
-1.054315 42.330009 -0.731110 42.661716 0.000000 0.000000 10.798172 9.057793 -0.665537 -16.600842 8.435850 -6.403929 -0.000486 0.005223 -10.641254 -20.170828 3.623903 -6.559006 9.602066 -0.001569 0.043999 -88.281609 37.625889 -3.274104 -49.198555 0.000000 0.000000 -10.148297 -23.873299 -16.184858 0.007340 5.028712 -0.047578 54.331848 28.017145 28.872374 33.282162 0.000000 0.000000 -29.894768 -0.066212 38.540398 -82.996635 26.575176 2.950011 64.918480 0.000000 0.000000 -14.202873 18.954025 -18.801144 -80.423767 -30.184769 -0.572687 57.190300 0.000000 0.000000 -6.737663 -18.553995 24.195910 
-1.054315 42.311985 -0.946779 43.807877 0.000000 0.000000 10.725651 9.050341 -0.729999 -17.783642 8.427436 -6.241832 -0.000486 0.005223 -10.641254 -22.370125 4.210385 -6.744396 9.602066 -0.001569 0.043999 -88.091820 38.298672 -2.920296 -48.462654 0.000000 0.000000 -9.816559 -24.984966 -16.636662 0.007340 5.028712 -0.047578 54.397404 27.329165 29.086744 34.504875 0.000000 0.000000 -30.418825 -0.065624 38.224285 -84.491150 26.224646 2.356756 64.913719 0.000000 0.000000 -13.827652 19.654783 -18.956068 -81.907837 -29.823488 0.130752 57.185116 0.000000 0.000000 -6.327521 -19.393591 24.468159 
-1.054315 42.293964 -1.162448 44.953926 0.000000 0.000000 10.653136 9.042806 -0.794450 -18.966301 8.422332 -6.079615 -0.000486 0.005223 -10.641254 -24.574821 4.789784 -6.952558 9.602066 -0.001569 0.043999 -87.894928 38.970493 -2.560313 -47.726654 0.000000 0.000000 -9.471910 -26.094437 -17.099934 0.007340 5.028712 -0.047578 54.459694 26.640949 29.298941 35.727322 0.000000 0.000000 -30.942888 -0.067925 37.908180 -85.976791 25.860472 1.775751 64.908951 0.000000 0.000000 -13.448842 20.354361 -19.116522 -83.381096 -29.446663 0.820547 57.179935 0.000000 0.000000 -5.911158 -20.230917 24.748104 
-1.054315 42.278946 -1.312633 46.099621 0.000000 0.000000 10.580637 9.035193 -0.858890 -20.148561 8.420543 -5.917382 -0.000486 0.005223 -10.641254 -26.783577 5.360762 -7.183136 9.602066 -0.001569 0.043999 -87.690666 39.641235 -2.193904 -46.990627 0.000000 0.000000 -9.113824 -27.201319 -17.575216 0.007340 5.028712 -0.047578 54.518757 25.952557 29.509033 36.949196 0.000000 0.000000 -31.466925 -0.073120 37.592117 -87.453003 25.483091 1.207454 64.904182 0.000000 0.000000 -13.066332 21.052668 -19.282616 -84.842911 -29.054764 1.496170 57.174763 0.000000 0.000000 -5.488375 -21.065788 25.035938 
-1.054315 42.263927 -1.462817 46.377499 0.000000 0.000000 10.508142 9.027496 -0.923319 -20.278908 8.481688 -5.750427 -0.000486 0.005223 -10.641254 -28.995041 5.922016 -7.435684 9.602066 -0.001569 0.043999 -87.802322 39.099361 -2.333688 -46.254639 0.000000 0.000000 -8.741755 -28.305233 -18.063087 0.007340 5.028712 -0.047578 54.574699 25.264059 29.717115 37.160789 0.000000 0.000000 -31.990871 -0.081205 37.276142 -87.897743 25.372387 1.025106 64.899414 0.000000 0.000000 -12.679996 21.749582 -19.454432 -85.278824 -28.942429 1.707744 57.169586 0.000000 0.000000 -5.591807 -20.770447 24.905996 
-1.054315 42.254913 -1.546921 46.655373 0.000000 0.000000 10.435661 9.019722 -0.987736 -20.409100 8.543208 -5.583587 -0.000486 0.005223 -10.641254 -30.326214 6.219696 -7.554257 9.602066 -0.001569 0.043999 -87.911461 38.557152 -2.471092 -45.518738 0.000000 0.000000 -8.355109 -29.405781 -18.564156 0.007340 5.028712 -0.047578 54.663269 25.386761 29.689915 37.372379 0.000000 0.000000 -32.514687 -0.092175 36.960289 -88.341667 25.260406 0.843879 64.894653 0.000000 0.000000 -12.812676 21.422834 -19.342066 -85.713791 -28.828686 1.918111 57.164410 0.000000 0.000000 -5.694331 -20.474871 24.776871 
